<?xml version="1.0" standalone="no"?>
<!DOCTYPE svg PUBLIC "-//W3C//DTD SVG 20010904//EN"
 "http://www.w3.org/TR/2001/REC-SVG-20010904/DTD/svg10.dtd">
<svg version="1.0" xmlns="http://www.w3.org/2000/svg"
 width="350.000000pt" height="350.000000pt" viewBox="0 0 350.000000 350.000000"
 preserveAspectRatio="xMidYMid meet">

<g transform="translate(0.000000,350.000000) scale(0.100000,-0.100000)"
fill="#000000" stroke="none">
<path d="M1571 3489 c-527 -59 -979 -332 -1272 -768 -388 -576 -394 -1342 -16
-1919 269 -410 692 -692 1161 -772 527 -90 1031 47 1444 395 531 445 742 1207
521 1875 -200 605 -731 1063 -1357 1171 -137 23 -362 32 -481 18z m799 -1294
c41 -8 107 -20 146 -27 l71 -12 7 -81 c3 -44 6 -108 6 -142 0 -59 -1 -63 -23
-63 -19 0 -26 9 -40 53 -47 149 -138 217 -291 217 -101 0 -164 -21 -225 -76
-189 -170 -189 -628 0 -798 82 -73 204 -101 319 -72 102 26 163 86 201 199 14
43 22 53 43 55 31 4 30 13 14 -145 l-11 -123 -53 -15 c-130 -38 -207 -48 -329
-42 -175 7 -270 45 -371 146 -97 97 -144 222 -144 386 0 377 296 613 680 540z
m-1105 -19 c109 -29 176 -87 201 -174 20 -68 13 -128 -22 -199 -29 -61 -67
-95 -144 -132 -30 -14 -57 -27 -59 -28 -3 -2 7 -16 21 -31 14 -15 63 -83 110
-152 159 -233 180 -253 276 -266 46 -6 52 -9 52 -30 l0 -24 -153 0 -153 0
-152 225 c-84 123 -158 227 -164 231 -7 5 -32 11 -56 14 l-43 7 3 -193 c2
-135 7 -197 15 -205 7 -7 39 -18 70 -24 48 -9 59 -15 61 -33 l3 -22 -235 0
-236 0 0 24 c0 21 5 24 60 30 33 4 66 14 75 22 13 13 15 73 15 442 0 495 5
467 -90 478 -55 6 -60 9 -60 30 l0 24 278 0 c199 0 291 -4 327 -14z"/>
<path d="M993 2123 c-10 -3 -13 -58 -13 -224 l0 -219 73 0 c59 0 83 5 126 26
74 37 104 86 109 175 3 38 1 85 -2 105 -10 53 -68 111 -129 129 -49 14 -138
19 -164 8z"/>
</g>
</svg>
